HIERARCHY
ROOT Hips
{
	OFFSET 0.000000 0.000000 0.000000
	CHANNELS 6 Xposition Yposition Zposition Zrotation Yrotation Xrotation 
	JOINT LHipJoint
	{
		OFFSET 0.000000 0.000000 0.000000
		CHANNELS 3 Zrotation Yrotation Xrotation
		JOINT LeftUpLeg
		{
			OFFSET 1.363060 -1.794630 0.839290
			CHANNELS 3 Zrotation Yrotation Xrotation
			JOINT LeftLeg
			{
				OFFSET 2.448110 -6.726130 0.000000
				CHANNELS 3 Zrotation Yrotation Xrotation
				JOINT LeftFoot
				{
					OFFSET 2.562200 -7.039590 0.000000
					CHANNELS 3 Zrotation Yrotation Xrotation
					JOINT LeftToeBase
					{
						OFFSET 0.157640 -0.433110 2.322550
						CHANNELS 3 Zrotation Yrotation Xrotation
						End Site
						{
							OFFSET 0.000000 0.000000 0.000000
						}
					}
				}
			}
		}
	}
	JOINT RHipJoint
	{
		OFFSET 0.000000 0.000000 0.000000
		CHANNELS 3 Zrotation Yrotation Xrotation
		JOINT RightUpLeg
		{
			OFFSET -1.305520 -1.794630 0.839290
			CHANNELS 3 Zrotation Yrotation Xrotation
			JOINT RightLeg
			{
				OFFSET -2.542530 -6.985550 0.000000
				CHANNELS 3 Zrotation Yrotation Xrotation
				JOINT RightFoot
				{
					OFFSET -2.568260 -7.056230 0.000000
					CHANNELS 3 Zrotation Yrotation Xrotation
					JOINT RightToeBase
					{
						OFFSET -0.164730 -0.452590 2.363150
						CHANNELS 3 Zrotation Yrotation Xrotation
						End Site
						{
							OFFSET 0.000000 0.000000 0.000000
						}
					}
				}
			}
		}
	}
	JOINT LowerBack
	{
		OFFSET 0.000000 0.000000 0.000000
		CHANNELS 3 Zrotation Yrotation Xrotation
		JOINT Spine
		{
			OFFSET 0.028270 2.035590 -0.193380
			CHANNELS 3 Zrotation Yrotation Xrotation
			JOINT Spine1
			{
				OFFSET 0.056720 2.048850 -0.042750
				CHANNELS 3 Zrotation Yrotation Xrotation
				JOINT Neck
				{
					OFFSET 0.000000 0.000000 0.000000
					CHANNELS 3 Zrotation Yrotation Xrotation
					JOINT Neck1
					{
						OFFSET -0.054170 1.746240 0.172020
						CHANNELS 3 Zrotation Yrotation Xrotation
						JOINT Head
						{
							OFFSET 0.104070 1.761360 -0.123970
							CHANNELS 3 Zrotation Yrotation Xrotation
							End Site
							{
								OFFSET 0.000000 0.000000 0.000000
							}
						}
					}
				}
				JOINT LeftShoulder
				{
					OFFSET 0.000000 0.000000 0.000000
					CHANNELS 3 Zrotation Yrotation Xrotation
					JOINT LeftArm
					{
						OFFSET 3.362410 1.200890 -0.311210
						CHANNELS 3 Zrotation Yrotation Xrotation
						JOINT LeftForeArm
						{
							OFFSET 4.983000 -0.000000 -0.000000
							CHANNELS 3 Zrotation Yrotation Xrotation
							JOINT LeftHand
							{
								OFFSET 3.483560 -0.000000 -0.000000
								CHANNELS 3 Zrotation Yrotation Xrotation
								JOINT LeftFingerBase
								{
									OFFSET 0.000000 0.000000 0.000000
									CHANNELS 3 Zrotation Yrotation Xrotation
									JOINT LeftHandIndex1
									{
										OFFSET 0.715260 -0.000000 -0.000000
										CHANNELS 3 Zrotation Yrotation Xrotation
										End Site
										{
											OFFSET 0.000000 0.000000 0.000000
										}
									}
								}
								JOINT LThumb
								{
									OFFSET 0.000000 0.000000 0.000000
									CHANNELS 3 Zrotation Yrotation Xrotation
									End Site
									{
										OFFSET 0.000000 0.000000 0.000000
									}
								}
							}
						}
					}
				}
				JOINT RightShoulder
				{
					OFFSET 0.000000 0.000000 0.000000
					CHANNELS 3 Zrotation Yrotation Xrotation
					JOINT RightArm
					{
						OFFSET -3.136600 1.374050 -0.404650
						CHANNELS 3 Zrotation Yrotation Xrotation
						JOINT RightForeArm
						{
							OFFSET -5.241900 -0.000000 -0.000000
							CHANNELS 3 Zrotation Yrotation Xrotation
							JOINT RightHand
							{
								OFFSET -3.444170 -0.000000 -0.000000
								CHANNELS 3 Zrotation Yrotation Xrotation
								JOINT RightFingerBase
								{
									OFFSET 0.000000 0.000000 0.000000
									CHANNELS 3 Zrotation Yrotation Xrotation
									JOINT RightHandIndex1
									{
										OFFSET -0.622530 -0.000000 -0.000000
										CHANNELS 3 Zrotation Yrotation Xrotation
										End Site
										{
											OFFSET 0.000000 0.000000 0.000000
										}
									}
								}
								JOINT RThumb
								{
									OFFSET 0.000000 0.000000 0.000000
									CHANNELS 3 Zrotation Yrotation Xrotation
									End Site
									{
										OFFSET 0.000000 0.000000 0.000000
									}
								}
							}
						}
					}
				}
			}
		}
	}
}
MOTION
Frames: 12
Frame Time: 0.008333
-0.998479 17.032706 -1.399128 37.052352 85.311445 50.623537 -8.886675 1.404167 4.946067 -14.958436 -3.431218 -34.431679 -3.577160 -0.514692 11.372272 -0.896639 -6.061926 4.084328 -0.702400 -0.000000 -27.667699 10.471874 -4.708205 1.633825 9.820096 -5.579623 -3.393322 2.054149 -1.745284 25.106338 1.015638 10.740199 1.668653 1.368800 -0.000000 -58.301000 -4.216608 1.775500 -8.565208 -1.972779 1.780765 -4.273402 -6.977014 1.702880 2.060227 11.113930 -7.278706 -9.438530 -3.381889 -0.252816 -0.473290 0.000000 0.000000 0.000000 -3.178388 25.507772 1.349054 -61.668140 14.464584 -22.560228 -3.015698 -37.959756 0.015769 12.551668 -1.427703 -0.152568 -0.145742 -0.048413 -0.000000 0.000000 0.000000 0.000000 0.000000 0.000000 0.000000 16.708386 1.244362 -0.986100 67.955269 21.974949 11.186125 1.850228 55.152274 0.013398 1.517895 6.702482 0.093361 0.019245 -0.306292 -0.000000 0.000000 0.000000 0.000000 0.000000 0.000000 0.000000 
-0.843931 17.047722 -1.369967 40.399232 85.174963 53.746782 -8.768818 1.532020 4.890722 -15.460095 -3.172323 -33.723431 -3.633178 -0.503583 11.693930 -0.901593 -6.228561 3.604668 -0.693700 0.000000 -26.808299 10.767175 -4.760340 1.525376 9.127445 -6.473267 -4.297505 1.782346 -1.979416 27.419241 0.991362 11.213042 3.675958 1.801500 0.000000 -61.428300 -4.551996 1.633195 -8.458016 -2.039878 1.680684 -4.257734 -6.994279 1.603133 2.032375 11.231806 -7.423625 -9.420476 -3.391602 -0.253654 -0.469461 0.000000 0.000000 0.000000 -3.060760 25.198065 1.339610 -61.714882 14.251546 -22.170351 -3.016401 -38.026229 0.015171 12.515635 -1.363892 -0.145268 -0.145058 -0.046622 -0.000000 0.000000 0.000000 0.000000 0.000000 0.000000 0.000000 16.909710 1.006165 -0.993764 68.455346 21.337283 10.876489 1.875308 54.727723 0.013312 1.488532 6.661668 0.090953 0.020971 -0.302304 -0.000000 0.000000 0.000000 0.000000 0.000000 0.000000 0.000000 
-0.692998 17.062222 -1.342664 43.041000 85.001962 56.177493 -8.672749 1.646425 4.848638 -15.880042 -2.975089 -32.979911 -3.682271 -0.501580 11.944936 -0.900735 -6.374621 3.047790 -0.673700 0.000000 -25.819400 11.035964 -4.787444 1.400146 8.463044 -7.393118 -5.313730 1.500426 -2.199092 29.860342 0.940027 11.680421 5.785027 2.300899 0.000000 -63.941700 -4.845452 1.491753 -8.337526 -2.095761 1.577078 -4.239209 -7.001050 1.499644 2.002733 11.319003 -7.566259 -9.407073 -3.397972 -0.254101 -0.466728 0.000000 0.000000 0.000000 -2.990929 24.879248 1.329604 -61.795467 14.012235 -21.721197 -3.013210 -38.150619 0.014570 12.466826 -1.301474 -0.137969 -0.144252 -0.044825 -0.000000 0.000000 0.000000 0.000000 0.000000 0.000000 0.000000 17.062940 0.765097 -0.997828 68.936389 20.718479 10.559602 1.898958 54.271487 0.013145 1.440484 6.620579 0.087244 0.022907 -0.298091 -0.000000 0.000000 0.000000 0.000000 0.000000 0.000000 0.000000 
-0.545717 17.075853 -1.316913 45.008461 84.788542 57.947018 -8.594726 1.747576 4.818972 -16.234934 -2.837347 -32.200475 -3.724981 -0.509373 12.110803 -0.892525 -6.470590 2.456731 -0.641099 0.000000 -24.755100 11.281028 -4.786568 1.260247 7.817364 -8.325828 -6.434732 1.213716 -2.401091 32.412597 0.857999 12.072560 7.922172 2.838100 0.000000 -65.830500 -5.108118 1.350535 -8.206333 -2.142569 1.470145 -4.217564 -6.998372 1.392574 1.974837 11.381774 -7.711561 -9.402384 -3.401675 -0.254169 -0.466307 0.000000 0.000000 0.000000 -2.959114 24.564048 1.318691 -61.909496 13.734194 -21.216315 -3.006451 -38.321688 0.013986 12.413827 -1.250410 -0.131968 -0.143337 -0.042978 -0.000000 0.000000 0.000000 0.000000 0.000000 0.000000 0.000000 17.180972 0.517107 -0.997612 69.390535 20.132902 10.250515 1.921834 53.784339 0.012913 1.375245 6.581065 0.082732 0.025050 -0.293704 -0.000000 0.000000 0.000000 0.000000 0.000000 0.000000 0.000000 
-0.401839 17.088463 -1.292787 46.239424 84.538455 58.997112 -8.537388 1.835563 4.797052 -16.534206 -2.724116 -31.409313 -3.761177 -0.525082 12.203221 -0.877930 -6.516647 1.861705 -0.599700 -0.000000 -23.681300 11.496314 -4.758379 1.114298 7.208263 -9.231740 -7.647672 0.929710 -2.583458 35.045288 0.744621 12.284502 9.999894 3.357500 0.000000 -67.133500 -5.335856 1.211143 -8.071612 -2.179451 1.360663 -4.194105 -6.987907 1.282557 1.949378 11.422980 -7.859744 -9.407232 -3.403726 -0.253960 -0.468367 0.000000 0.000000 0.000000 -2.963766 24.256006 1.306256 -62.053081 13.421787 -20.658591 -2.995913 -38.537492 0.013451 12.365744 -1.216045 -0.127864 -0.142311 -0.041126 -0.000000 0.000000 0.000000 0.000000 0.000000 0.000000 0.000000 17.271347 0.263613 -0.992469 69.810946 19.583414 9.958189 1.944434 53.270935 0.012634 1.296576 6.545482 0.077319 0.027359 -0.289186 0.000000 0.000000 0.000000 0.000000 0.000000 0.000000 0.000000 
-0.261196 17.100007 -1.269978 46.772169 84.248756 59.365525 -8.497363 1.912688 4.779451 -16.793895 -2.613095 -30.615162 -3.791778 -0.548131 12.220545 -0.856833 -6.500723 1.291506 -0.551499 0.000000 -22.668700 11.682703 -4.703003 0.967055 6.637173 -10.087354 -8.938510 0.654331 -2.746895 37.730869 0.602568 12.214199 11.925783 3.786300 -0.000000 -67.963300 -5.534587 1.073989 -7.936966 -2.207887 1.249476 -4.169059 -6.971515 1.170443 1.928773 11.449290 -8.013376 -9.423668 -3.405137 -0.253541 -0.473547 0.000000 0.000000 0.000000 -2.994642 23.964619 1.291794 -62.223864 13.065333 -20.051737 -2.982214 -38.781339 0.012981 12.330564 -1.206241 -0.126662 -0.141185 -0.039227 -0.000000 0.000000 0.000000 0.000000 0.000000 0.000000 0.000000 17.347386 0.003210 -0.982470 70.191561 19.074991 9.692449 1.967152 52.735476 0.012325 1.206848 6.515388 0.071505 0.029809 -0.284580 0.000000 0.000000 0.000000 0.000000 0.000000 0.000000 0.000000 
-0.123362 17.110651 -1.248553 46.591798 83.925007 59.039335 -8.478836 1.980461 4.759229 -17.019095 -2.455112 -29.846340 -3.816815 -0.575549 12.187566 -0.831557 -6.442340 0.758212 -0.501800 0.000000 -21.782700 11.833781 -4.624852 0.827403 6.128492 -10.856212 -10.292127 0.392561 -2.893574 40.435479 0.435733 11.753632 13.611158 4.039900 -0.000000 -68.465800 -5.694043 0.941142 -7.807852 -2.226065 1.137461 -4.144408 -6.951294 1.056956 1.909759 11.461564 -8.168419 -9.448121 -3.407303 -0.253100 -0.480739 0.000000 0.000000 0.000000 -3.055409 23.677176 1.275154 -62.413669 12.690589 -19.399571 -2.964644 -39.062238 0.012596 12.314409 -1.218816 -0.128057 -0.139937 -0.037401 -0.000000 0.000000 0.000000 0.000000 0.000000 0.000000 0.000000 17.413411 -0.258677 -0.966472 70.528077 18.598746 9.453562 1.990321 52.184738 0.012009 1.110612 6.492846 0.065291 0.032351 -0.279923 0.000000 0.000000 0.000000 0.000000 0.000000 0.000000 0.000000 
0.011881 17.120550 -1.227964 45.846749 83.558771 58.161884 -8.473720 2.042534 4.735033 -17.225971 -2.247979 -29.091615 -3.837834 -0.608159 12.090468 -0.801025 -6.322580 0.278723 -0.450300 0.000000 -21.072900 11.957229 -4.523940 0.695497 5.667282 -11.535535 -11.695446 0.146136 -3.027338 43.138647 0.248114 10.838852 14.967285 4.047700 0.000001 -68.685800 -5.828305 0.811628 -7.683458 -2.237431 1.025175 -4.119191 -6.928982 0.942834 1.896138 11.468714 -8.328303 -9.483027 -3.410915 -0.252657 -0.490808 0.000000 0.000000 0.000000 -3.127052 23.407882 1.256212 -62.623463 12.273145 -18.705289 -2.944758 -39.347700 0.012279 12.322136 -1.260024 -0.132851 -0.138612 -0.035501 -0.000000 0.000000 0.000000 0.000000 0.000000 0.000000 0.000000 17.484657 -0.525417 -0.945916 70.817125 18.157622 9.248660 2.013789 51.623808 0.011682 1.006461 6.479412 0.058877 0.034979 -0.275257 0.000000 0.000000 0.000000 0.000000 0.000000 0.000000 0.000000 
0.144832 17.129973 -1.208096 44.623479 83.150954 56.817394 -8.481829 2.100677 4.703073 -17.417950 -1.970983 -28.357539 -3.855255 -0.644675 11.939919 -0.766327 -6.151819 -0.146920 -0.399300 0.000000 -20.566100 12.053118 -4.403484 0.575088 5.260980 -12.111181 -13.135151 -0.083982 -3.151683 45.812702 0.041923 9.429044 15.920647 3.762700 -0.000000 -68.633700 -5.934641 0.685859 -7.564769 -2.241881 0.912855 -4.094143 -6.906150 0.828335 1.886056 11.473064 -8.490034 -9.525342 -3.416834 -0.252327 -0.502897 0.000000 0.000000 0.000000 -3.205730 23.148488 1.235265 -62.848958 11.824430 -17.971606 -2.922698 -39.633692 0.012020 12.355137 -1.325978 -0.140542 -0.137217 -0.033540 -0.000000 0.000000 0.000000 0.000000 0.000000 0.000000 0.000000 17.565678 -0.793912 -0.920875 71.057157 17.742179 9.074843 2.037375 51.059313 0.011355 0.895562 6.476264 0.052063 0.037660 -0.270607 0.000000 0.000000 0.000000 0.000000 0.000000 0.000000 0.000000 
0.275703 17.139215 -1.188669 43.053450 82.700194 55.133926 -8.499754 2.156369 4.662074 -17.598126 -1.625242 -27.636290 -3.869581 -0.685118 11.734640 -0.727440 -5.929658 -0.520980 -0.349201 -0.000000 -20.264400 12.125401 -4.265169 0.466870 4.905830 -12.580471 -14.598561 -0.297669 -3.269794 48.431796 -0.182029 7.536300 16.411559 3.181701 0.000000 -68.244000 -6.016586 0.563032 -7.450487 -2.240616 0.800260 -4.068928 -6.883888 0.713367 1.880069 11.478287 -8.651979 -9.573766 -3.425444 -0.252152 -0.516723 0.000000 0.000000 0.000000 -3.280295 22.900195 1.212825 -63.090470 11.337294 -17.199598 -2.899374 -39.902513 0.011790 12.413665 -1.414086 -0.151135 -0.135796 -0.031426 -0.000000 0.000000 0.000000 0.000000 0.000000 0.000000 0.000000 17.661746 -1.063231 -0.892665 71.248352 17.344971 8.928517 2.060499 50.497877 0.011017 0.776395 6.483689 0.044850 0.040374 -0.265984 0.000000 0.000000 0.000000 0.000000 0.000000 0.000000 0.000000 
0.404705 17.148601 -1.169731 41.225217 82.210828 53.197972 -8.528788 2.209823 4.610045 -17.761584 -1.205294 -26.929441 -3.880626 -0.728334 11.487006 -0.685565 -5.672298 -0.855578 -0.301099 -0.000000 -20.144200 12.173817 -4.112411 0.372933 4.609527 -12.937901 -16.073891 -0.494479 -3.383614 50.965780 -0.423646 5.220385 16.403375 2.347800 -0.000000 -67.408901 -6.067700 0.443030 -7.340177 -2.232649 0.686855 -4.044617 -6.862846 0.597392 1.873602 11.483074 -8.810210 -9.622568 -3.437072 -0.252239 -0.530609 0.000000 0.000000 0.000000 -3.351875 22.640396 1.189820 -63.344066 10.839823 -16.392329 -2.874031 -40.167048 0.011563 12.494523 -1.512987 -0.163227 -0.134347 -0.029202 -0.000000 0.000000 0.000000 0.000000 0.000000 0.000000 0.000000 17.769611 -1.330458 -0.860618 71.393090 16.953380 8.800997 2.082907 49.943810 0.010671 0.648258 6.502178 0.037235 0.043118 -0.261399 0.000000 0.000000 0.000000 0.000000 0.000000 0.000000 0.000000 
0.531917 17.158322 -1.151133 39.252121 81.684726 51.120537 -8.566343 2.260805 4.548171 -17.904675 -0.731220 -26.223827 -3.888113 -0.774724 11.193846 -0.640259 -5.378274 -1.160459 -0.254600 0.000000 -20.166100 12.201896 -3.946956 0.292503 4.366972 -13.187100 -17.549766 -0.673543 -3.494482 53.384420 -0.681694 2.597254 15.885093 1.350600 -0.000000 -66.008699 -6.089706 0.324663 -7.231980 -2.218666 0.571914 -4.020875 -6.843227 0.479842 1.866516 11.488613 -8.963205 -9.669824 -3.451467 -0.252580 -0.544062 0.000000 0.000000 0.000000 -3.411709 22.366087 1.167100 -63.610990 10.328217 -15.550262 -2.847217 -40.417644 0.011297 12.593960 -1.615973 -0.176319 -0.132918 -0.026762 -0.000000 0.000000 0.000000 0.000000 0.000000 0.000000 0.000000 17.888683 -1.595458 -0.825884 71.494543 16.559814 8.685091 2.103994 49.401147 0.010305 0.508450 6.530836 0.028921 0.045890 -0.256846 0.000000 0.000000 0.000000 0.000000 0.000000 0.000000 0.000000 
